<svg width="22" height="22" viewBox="0 0 22 22" fill="none" xmlns="http://www.w3.org/2000/svg">
<g id="clock 1" clip-path="url(#clip0_29_9927)">
<g id="Group">
<g id="Group_2">
<g id="Group_3">
<path id="Vector" d="M18.7782 3.2218C16.7005 1.14417 13.9382 0 11 0C8.0618 0 5.29947 1.14417 3.2218 3.2218C1.14417 5.29947 0 8.0618 0 11C0 13.9382 1.14417 16.7005 3.2218 18.7782C5.29947 20.8558 8.0618 22 11 22C13.9382 22 16.7005 20.8558 18.7782 18.7782C20.8558 16.7005 22 13.9382 22 11C22 8.0618 20.8558 5.29947 18.7782 3.2218ZM11 20.5652C5.72576 20.5652 1.43477 16.2743 1.43477 11C1.43477 5.72571 5.72576 1.43477 11 1.43477C16.2742 1.43477 20.5652 5.72576 20.5652 11C20.5652 16.2742 16.2742 20.5652 11 20.5652Z" fill="#F2680C"/>
<path id="Vector_2" d="M11.717 4.43945H10.2822V11.2705L14.2868 15.8272L15.3646 14.88L11.717 10.7296V4.43945Z" fill="#F2680C"/>
</g>
</g>
</g>
</g>
<defs>
<clipPath id="clip0_29_9927">
<rect width="22" height="22" fill="white"/>
</clipPath>
</defs>
</svg>
