<svg width="24" height="24" viewBox="0 0 24 24" fill="none" xmlns="http://www.w3.org/2000/svg">
<path d="M7.49997 13C7.49997 12.7348 7.39461 12.4804 7.20708 12.2929C7.01954 12.1054 6.76519 12 6.49998 12H3.49999C3.23478 12 2.98043 12.1054 2.79289 12.2929C2.60536 12.4804 2.5 12.7348 2.5 13V20H7.49997V13Z" fill="#63C058"/>
<path d="M14.5 8.99999C14.5 8.73478 14.3946 8.48043 14.2071 8.29289C14.0195 8.10536 13.7652 8 13.5 8H10.5C10.2348 8 9.98043 8.10536 9.79289 8.29289C9.60536 8.48043 9.5 8.73478 9.5 8.99999V19.9999H14.5V8.99999Z" fill="#DCDCDC"/>
<path d="M21.5 4.99999C21.5 4.73478 21.3946 4.48043 21.2071 4.29289C21.0195 4.10536 20.7652 4 20.5 4H17.5C17.2348 4 16.9804 4.10536 16.7929 4.29289C16.6054 4.48043 16.5 4.73478 16.5 4.99999V19.9999H21.5V4.99999Z" fill="#DCDCDC"/>
</svg>
